<svg width="100" height="100" viewBox="0 0 100 100" fill="none" xmlns="http://www.w3.org/2000/svg">
<path d="M85.3552 14.6449C76.6256 5.91538 64.6918 0.404195 51.4659 0.0189292C23.1629 -0.798586 0 22.4959 0 50.813V99.9485C0 99.9766 0.0234918 100 0.051682 100H49.9953C63.8038 100 76.3014 94.3997 85.3552 85.3553C94.3995 76.3016 100 63.8039 100 49.9954C100 36.1869 94.3995 23.6893 85.3552 14.6449V14.6449Z" fill="url(#paint0_linear_19_19)"/>
<path d="M23.7871 50.0042C23.7871 58.1276 29.5426 65.2926 37.4734 67.0451L39.5454 67.5009V57.1316L38.493 56.6946C35.7679 55.5717 34.0061 52.9406 34.0061 49.9995C34.0061 47.0583 35.7679 44.4272 38.493 43.3043L39.5454 42.8673V32.498L37.4734 32.9538C29.5426 34.7063 23.7871 41.876 23.7871 49.9948V50.0042Z" fill="white"/>
<path d="M44.8258 15.218L42.9512 15.0254V25.2678L44.4359 25.4605C56.7268 27.0485 65.992 37.5963 65.992 50.0047C65.992 62.4084 56.7221 72.9515 44.4359 74.5396L42.9512 74.7322V84.9747L44.8258 84.782C62.7172 82.9497 76.2109 67.9948 76.2109 50.0047C76.2109 32.01 62.7172 17.0551 44.8258 15.218V15.218Z" fill="white"/>
<defs>
<linearGradient id="paint0_linear_19_19" x1="79.7594" y1="10.1392" x2="9.11953" y2="105.253" gradientUnits="userSpaceOnUse">
<stop stop-color="#D74EFF"/>
<stop offset="0.41" stop-color="#A629F6"/>
<stop offset="0.8" stop-color="#7E0BEF"/>
<stop offset="1" stop-color="#7000ED"/>
</linearGradient>
</defs>
</svg>
