<svg enable-background="new 0 0 512 512" viewBox="0 0 512 512" xmlns="http://www.w3.org/2000/svg"><path d="m474.655 74.503c-25.486-28.783-60.712-44.633-99.188-44.633-30.225 0-58.5 12.299-81.767 35.566-15.522 15.523-28.33 35.26-37.699 57.931-9.371-22.671-22.177-42.407-37.699-57.931-23.267-23.267-51.542-35.566-81.767-35.566-38.477 0-73.702 15.851-99.188 44.634-23.735 26.801-37.347 63.407-37.347 100.432 0 44.458 13.452 88.335 39.981 130.418 21.009 33.324 50.227 65.585 86.845 95.889 62.046 51.348 123.114 78.995 125.683 80.146 2.203.988 4.779.988 6.981 0 2.57-1.151 63.637-28.798 125.683-80.146 36.618-30.304 65.836-62.565 86.845-95.889 26.53-42.083 39.982-85.96 39.982-130.418 0-37.025-13.612-73.631-37.345-100.433z" fill="#ff6647"/><path d="m160.959 401.243c-36.618-30.304-65.836-62.565-86.845-95.889-26.529-42.083-39.981-85.961-39.981-130.418 0-37.025 13.612-73.631 37.345-100.433 21.44-24.213 49.775-39.271 81.138-43.443-5.286-.786-10.653-1.189-16.082-1.189-38.477 0-73.702 15.851-99.188 44.634-23.734 26.8-37.346 63.406-37.346 100.431 0 44.458 13.452 88.335 39.981 130.418 21.009 33.324 50.227 65.585 86.845 95.889 62.046 51.348 123.114 78.995 125.683 80.146 2.203.988 4.779.988 6.981 0 .689-.308 5.586-2.524 13.577-6.588-21.813-11.092-66.696-35.976-112.108-73.558z" fill="#e35336"/></svg>