<svg width="19" height="16" viewBox="0 0 19 16" fill="none" xmlns="http://www.w3.org/2000/svg">
<path d="M17.3561 1.69444C16.3999 0.735799 15.1324 0.150698 13.7826 0.0448299C12.4328 -0.0610384 11.0896 0.319306 9.9957 1.11716C8.84804 0.263537 7.41957 -0.123537 5.99795 0.0338862C4.57633 0.191309 3.26715 0.881536 2.33406 1.96557C1.40096 3.04961 0.913264 4.44693 0.969169 5.87614C1.02507 7.30536 1.62043 8.66032 2.63535 9.66816L8.23679 15.2786C8.70585 15.7402 9.33759 15.999 9.9957 15.999C10.6538 15.999 11.2856 15.7402 11.7546 15.2786L17.3561 9.66816C18.4092 8.60854 19.0003 7.17526 19.0003 5.6813C19.0003 4.18733 18.4092 2.75406 17.3561 1.69444ZM16.0842 8.42339L10.4828 14.0248C10.419 14.0892 10.3432 14.1403 10.2596 14.1752C10.176 14.21 10.0863 14.228 9.9957 14.228C9.90512 14.228 9.81543 14.21 9.73183 14.1752C9.64823 14.1403 9.57236 14.0892 9.50862 14.0248L3.90718 8.39633C3.19979 7.67324 2.80367 6.70189 2.80367 5.69032C2.80367 4.67875 3.19979 3.7074 3.90718 2.98431C4.62802 2.27262 5.60021 1.87355 6.61319 1.87355C7.62616 1.87355 8.59836 2.27262 9.3192 2.98431C9.40305 3.06885 9.50281 3.13595 9.61273 3.18175C9.72265 3.22754 9.84055 3.25112 9.95962 3.25112C10.0787 3.25112 10.1966 3.22754 10.3065 3.18175C10.4164 3.13595 10.5162 3.06885 10.6 2.98431C11.3209 2.27262 12.2931 1.87355 13.3061 1.87355C14.319 1.87355 15.2912 2.27262 16.0121 2.98431C16.7292 3.69793 17.1383 4.66401 17.1518 5.6756C17.1653 6.6872 16.7821 7.66384 16.0842 8.39633V8.42339Z" fill="#9E9E9E"/>
</svg>
