<svg fill="none" height="68" viewBox="0 0 68 68" width="68" xmlns="http://www.w3.org/2000/svg"><rect fill="#4e4e4e" height="68" rx="5" width="68"/><g fill="#fff"><path d="m63.1035 24.4988c0-2.0887-1.4799-3.931-3.519-4.3816l-.5328-.1172v2.6662l.2706.1123c.7007.2887 1.1537.9653 1.1537 1.7215s-.453 1.4328-1.1537 1.7215l-.2706.1123v2.6662l.5328-.1172c2.0391-.4506 3.519-2.2941 3.519-4.3816z"/><path d="m4 24.5012c0 2.0887 1.47987 3.931 3.51906 4.3816l.53275.1172v-2.6662l-.2706-.1123c-.70067-.2887-1.15369-.9653-1.15369-1.7215s.45302-1.4328 1.15369-1.7215l.2706-.1123v-2.6662l-.53275.1172c-2.03919.4506-3.51906 2.2941-3.51906 4.3816z"/><path d="m44.9508 20c-4.5962 0-8.65 3.2564-9.6415 7.7435l-.2579 1.1723h5.8668l.2472-.5954c.6353-1.5418 2.124-2.5387 3.788-2.5387 1.6641 0 3.1527.9969 3.7881 2.5387l.2472.5954h5.8668l-.2579-1.1723c-.9915-4.4871-5.048-7.7435-9.6415-7.7435z"/><path d="m22.1471 20c-4.5962 0-8.65 3.2564-9.6415 7.7435l-.2579 1.1723h5.8668l.2472-.5954c.6353-1.5418 2.124-2.5387 3.788-2.5387 1.6641 0 3.1527.9969 3.7881 2.5387l.2472.5954h5.8668l-.2579-1.1723c-.9915-4.4871-5.048-7.7435-9.6415-7.7435z"/><path d="m53.2309 37.9767.1089-1.0607h-5.795l-.109.84c-.8985 6.954-6.8663 12.1961-13.8867 12.1961-7.0178 0-12.983-5.2447-13.8815-12.1961l-.109-.84h-5.795l.109 1.0607c1.0367 10.1226 9.498 17.7572 19.6765 17.7572 10.1811 0 18.6424-7.6346 19.6818-17.7572z"/></g></svg>