<svg fill="none" height="256" viewBox="0 0 256 256" width="256" xmlns="http://www.w3.org/2000/svg" xmlns:xlink="http://www.w3.org/1999/xlink"><linearGradient id="a" gradientUnits="userSpaceOnUse" x1="204.19" x2="23.345" y1="25.9496" y2="269.45"><stop offset="0" stop-color="#d74eff"/><stop offset=".41" stop-color="#a629f6"/><stop offset=".8" stop-color="#7e0bef"/><stop offset="1" stop-color="#7000ed"/></linearGradient><clipPath id="b"><path d="m0 0h256v256h-256z"/></clipPath><g clip-path="url(#b)"><path d="m218.51 37.4895c-22.35-22.35-52.905-36.45995-86.755-37.4349526-72.46-2.0949974-131.755 57.5349526-131.755 130.0254526v125.79c0 .07.06.13.13.13h127.86c35.345 0 67.345-14.335 90.52-37.49 23.155-23.175 37.49-55.17 37.49-90.52 0-35.3505-14.335-67.3455-37.49-90.5005z" fill="url(#a)"/><g fill="#fff"><path d="m60.9004 128.01c0 20.795 14.735 39.145 35.035 43.63l5.2996 1.17v-26.55l-2.6946-1.115c-6.975-2.88-11.48-9.61-11.48-17.14s4.505-14.26 11.48-17.14l2.6946-1.115v-26.5498l-5.2996 1.17c-20.3 4.485-35.035 22.8348-35.035 43.6298z"/><path d="m114.756 38.9598-4.805-.495v26.22l3.8.49c31.465 4.06 55.19 31.0701 55.19 62.8302 0 31.75-23.725 58.75-55.19 62.81l-3.8.49v26.225l4.805-.49c45.805-4.695 80.345-42.97 80.345-89.03 0-46.0702-34.54-84.3502-80.345-89.0502z"/></g></g></svg>