<svg width="37" height="36" viewBox="0 0 37 36" fill="none" xmlns="http://www.w3.org/2000/svg">
<path d="M31.056 5.27288C27.9134 2.13024 23.6172 0.146213 18.8558 0.00751763C8.66678 -0.286788 0.328125 8.09923 0.328125 18.2934V35.9821C0.328125 35.9923 0.336582 36.0008 0.346731 36.0008H18.3264C23.2975 36.0008 27.7966 33.9846 31.056 30.7286C34.312 27.4693 36.3281 22.9701 36.3281 17.9991C36.3281 13.028 34.312 8.52885 31.056 5.27288Z" fill="url(#paint0_linear_563_2550)"/>
<path d="M8.89258 18.0024C8.89258 20.9268 10.9646 23.5062 13.8197 24.1371L14.5656 24.3012V20.5683L14.1867 20.411C13.2057 20.0067 12.5714 19.0595 12.5714 18.0007C12.5714 16.9419 13.2057 15.9947 14.1867 15.5904L14.5656 15.4331V11.7002L13.8197 11.8643C10.9646 12.4952 8.89258 15.0763 8.89258 17.999V18.0024Z" fill="white"/>
<path d="M16.4659 5.4795L15.791 5.41016V9.09743L16.3255 9.16678C20.7502 9.73848 24.0857 13.5357 24.0857 18.0027C24.0857 22.468 20.7485 26.2636 16.3255 26.8353L15.791 26.9046V30.5919L16.4659 30.5225C22.9068 29.8629 27.7645 24.4791 27.7645 18.0027C27.7645 11.5246 22.9068 6.14085 16.4659 5.4795Z" fill="white"/>
<defs>
<linearGradient id="paint0_linear_563_2550" x1="29.0415" y1="3.65082" x2="3.61115" y2="37.8917" gradientUnits="userSpaceOnUse">
<stop stop-color="#D74EFF"/>
<stop offset="0.41" stop-color="#A629F6"/>
<stop offset="0.8" stop-color="#7E0BEF"/>
<stop offset="1" stop-color="#7000ED"/>
</linearGradient>
</defs>
</svg>
