<svg width="19" height="16" viewBox="0 0 19 16" fill="none" xmlns="http://www.w3.org/2000/svg">
<path d="M17.3561 1.69493C16.3999 0.736287 15.1324 0.151186 13.7826 0.0453182C12.4328 -0.0605501 11.0896 0.319794 9.9957 1.11765C8.84804 0.264025 7.41957 -0.123049 5.99795 0.0343745C4.57633 0.191798 3.26715 0.882024 2.33406 1.96606C1.40096 3.05009 0.913264 4.44741 0.969169 5.87663C1.02507 7.30585 1.62043 8.66081 2.63535 9.66864L8.23679 15.2791C8.70585 15.7407 9.33759 15.9995 9.9957 15.9995C10.6538 15.9995 11.2856 15.7407 11.7546 15.2791L17.3561 9.66864C18.4092 8.60903 19.0003 7.17575 19.0003 5.68179C19.0003 4.18782 18.4092 2.75454 17.3561 1.69493Z" fill="white"/>
</svg>
